<?xml version="1.0" encoding="UTF-8"?>
<svg fill="none" viewBox="0 0 12 10" xmlns="http://www.w3.org/2000/svg">
<path d="m12 8.5c0-0.27344-0.2266-0.5-0.5-0.5h-11c-0.27344 0-0.5 0.22656-0.5 0.5v1c0 0.27344 0.22656 0.5 0.5 0.5h11c0.2734 0 0.5-0.22656 0.5-0.5v-1zm0-4c0-0.27344-0.2266-0.5-0.5-0.5h-11c-0.27344 0-0.5 0.22656-0.5 0.5v1c0 0.27344 0.22656 0.5 0.5 0.5h11c0.2734 0 0.5-0.22656 0.5-0.5v-1zm0-4c0-0.27344-0.2266-0.5-0.5-0.5h-11c-0.27344 0-0.5 0.22656-0.5 0.5v1c0 0.27344 0.22656 0.5 0.5 0.5h11c0.2734 0 0.5-0.22656 0.5-0.5v-1z" fill="#2B4074"/>
</svg>
